<?xml version="1.0" encoding="utf-8"?>
<svg viewBox="628.1879272460938 573.7238159179688 550 550" xmlns="http://www.w3.org/2000/svg">
  <path d="M 705.957 650.337 L 1105.491 650.337 C 1139.089 650.337 1166.325 677.573 1166.325 711.171 L 1166.325 940.993 C 1166.325 974.591 1139.089 1001.827 1105.491 1001.827 L 791.454 1005.115 C 732.346 1045.056 704.652 1094.19 657.585 1069.374 C 642.023 1061.169 645.123 1011.162 645.123 997.717 L 645.123 711.171 C 645.123 677.573 672.359 650.337 705.957 650.337 Z M 808.765 868.811 L 796.365 759.411 L 753.365 759.411 L 738.565 868.811 L 729.765 759.411 L 688.565 759.411 L 707.965 898.611 L 760.365 898.611 L 774.165 798.611 L 786.565 898.611 L 840.165 898.611 L 855.895 790.211 L 883.961 790.211 L 883.961 898.611 L 925.161 898.611 L 925.161 790.211 L 956.761 790.211 L 957.358 785.833 L 957.358 898.611 L 998.558 898.611 L 998.558 847.011 L 1036.358 847.011 L 1036.358 818.411 L 998.558 818.411 L 998.558 788.011 L 1041.558 788.011 L 1042.285 783.063 L 1060.155 797.011 C 1066.955 789.811 1073.889 786.211 1080.955 786.211 C 1084.289 786.211 1086.822 786.878 1088.555 788.211 C 1090.289 789.544 1091.155 791.478 1091.155 794.011 C 1091.155 796.278 1090.422 798.178 1088.955 799.711 C 1087.489 801.244 1085.022 803.144 1081.555 805.411 C 1077.555 808.078 1074.222 810.711 1071.555 813.311 C 1068.889 815.911 1066.555 819.478 1064.555 824.011 C 1062.555 828.544 1061.555 834.144 1061.555 840.811 L 1061.555 844.611 L 1096.755 844.611 L 1096.755 842.011 C 1096.755 838.144 1097.922 834.911 1100.255 832.311 C 1102.589 829.711 1106.289 826.611 1111.355 823.011 C 1115.889 819.944 1119.555 817.144 1122.355 814.611 C 1125.155 812.078 1127.555 808.811 1129.555 804.811 C 1131.555 800.811 1132.555 795.944 1132.555 790.211 C 1132.555 783.811 1130.789 777.978 1127.255 772.711 C 1123.722 767.444 1118.389 763.244 1111.255 760.111 C 1104.122 756.978 1095.489 755.411 1085.355 755.411 C 1069.262 755.411 1055.586 759.998 1044.325 769.17 L 1045.758 759.411 L 820.765 759.411 Z M 1079.355 861.411 C 1073.622 861.411 1068.755 863.444 1064.755 867.511 C 1060.755 871.578 1058.755 876.411 1058.755 882.011 C 1058.755 887.611 1060.755 892.444 1064.755 896.511 C 1068.755 900.578 1073.622 902.611 1079.355 902.611 C 1085.089 902.611 1089.955 900.578 1093.955 896.511 C 1097.955 892.444 1099.955 887.611 1099.955 882.011 C 1099.955 876.411 1097.955 871.578 1093.955 867.511 C 1089.955 863.444 1085.089 861.411 1079.355 861.411 Z"/>
</svg>